<svg width="310" height="310" viewBox="0 0 310 310" fill="none" xmlns="http://www.w3.org/2000/svg">
<g clip-path="url(#clip0_4311_53)">
<rect width="310" height="310" rx="155" fill="#658AE5"/>
<path d="M128.735 215.08L134.239 200.616L61.535 161.704V155.816L115.295 126.76V133.544L78.047 153.256C76.255 154.195 74.3777 155.176 72.415 156.2C70.367 157.224 68.7457 158.035 67.551 158.632C68.7457 159.229 70.367 160.04 72.415 161.064C74.3777 162.088 76.255 163.069 78.047 164.008L136.287 195.112L174.303 94.76H181.215L173.407 115.496L248.415 155.816V161.704L194.655 190.76V183.976L231.903 164.264C233.695 163.325 235.572 162.344 237.535 161.32C239.583 160.296 241.204 159.485 242.399 158.888C241.204 158.291 239.583 157.48 237.535 156.456C235.572 155.432 233.695 154.451 231.903 153.512L171.231 121L135.647 215.08H128.735Z" fill="black"/>
</g>
<defs>
<clipPath id="clip0_4311_53">
<rect width="310" height="310" rx="155" fill="white"/>
</clipPath>
</defs>
</svg>
